<mxfile host="app.diagrams.net" agent="Mozilla/5.0 (Windows NT 10.0; Win64; x64) AppleWebKit/537.36 (KHTML, like Gecko) Chrome/140.0.0.0 Safari/537.36 Edg/140.0.0.0" version="28.2.0">
  <diagram name="Page-1" id="5exD3tOwVEBH9GhEouph">
    <mxGraphModel dx="2290" dy="790" grid="1" gridSize="10" guides="1" tooltips="1" connect="1" arrows="1" fold="1" page="1" pageScale="1" pageWidth="850" pageHeight="1100" math="0" shadow="0">
      <root>
        <mxCell id="0" />
        <mxCell id="1" parent="0" />
        <mxCell id="lYN4OYt0fOrp-CvqFd3v-1" value="Ingestion" style="rounded=1;whiteSpace=wrap;html=1;" vertex="1" parent="1">
          <mxGeometry x="10" y="170" width="120" height="60" as="geometry" />
        </mxCell>
        <mxCell id="lYN4OYt0fOrp-CvqFd3v-2" value="SIPRecorder" style="ellipse;whiteSpace=wrap;html=1;" vertex="1" parent="1">
          <mxGeometry x="-140" y="330" width="100" height="80" as="geometry" />
        </mxCell>
        <mxCell id="lYN4OYt0fOrp-CvqFd3v-3" value="WebRTCUupload" style="ellipse;whiteSpace=wrap;html=1;" vertex="1" parent="1">
          <mxGeometry x="30" y="340" width="100" height="80" as="geometry" />
        </mxCell>
        <mxCell id="lYN4OYt0fOrp-CvqFd3v-4" value="Filedrop" style="ellipse;whiteSpace=wrap;html=1;" vertex="1" parent="1">
          <mxGeometry x="150" y="335" width="100" height="80" as="geometry" />
        </mxCell>
        <mxCell id="lYN4OYt0fOrp-CvqFd3v-5" value="Nhận luồng audio" style="rhombus;whiteSpace=wrap;html=1;" vertex="1" parent="1">
          <mxGeometry x="30" y="270" width="80" height="50" as="geometry" />
        </mxCell>
        <mxCell id="lYN4OYt0fOrp-CvqFd3v-6" value="" style="endArrow=classic;html=1;rounded=0;entryX=0.5;entryY=0;entryDx=0;entryDy=0;" edge="1" parent="1" target="lYN4OYt0fOrp-CvqFd3v-5">
          <mxGeometry width="50" height="50" relative="1" as="geometry">
            <mxPoint x="70.15" y="230" as="sourcePoint" />
            <mxPoint x="69.85999999999999" y="250" as="targetPoint" />
          </mxGeometry>
        </mxCell>
        <mxCell id="lYN4OYt0fOrp-CvqFd3v-7" value="" style="endArrow=classic;html=1;rounded=0;entryX=0.3;entryY=0;entryDx=0;entryDy=0;entryPerimeter=0;exitX=1;exitY=0.5;exitDx=0;exitDy=0;" edge="1" parent="1" source="lYN4OYt0fOrp-CvqFd3v-5" target="lYN4OYt0fOrp-CvqFd3v-4">
          <mxGeometry width="50" height="50" relative="1" as="geometry">
            <mxPoint x="210" y="300" as="sourcePoint" />
            <mxPoint x="260" y="250" as="targetPoint" />
          </mxGeometry>
        </mxCell>
        <mxCell id="lYN4OYt0fOrp-CvqFd3v-8" value="" style="endArrow=classic;html=1;rounded=0;entryX=0.394;entryY=0;entryDx=0;entryDy=0;entryPerimeter=0;exitX=0.5;exitY=1;exitDx=0;exitDy=0;" edge="1" parent="1" source="lYN4OYt0fOrp-CvqFd3v-5" target="lYN4OYt0fOrp-CvqFd3v-3">
          <mxGeometry width="50" height="50" relative="1" as="geometry">
            <mxPoint x="190" y="310" as="sourcePoint" />
            <mxPoint x="240" y="260" as="targetPoint" />
          </mxGeometry>
        </mxCell>
        <mxCell id="lYN4OYt0fOrp-CvqFd3v-9" value="" style="endArrow=classic;html=1;rounded=0;exitX=0;exitY=0.5;exitDx=0;exitDy=0;" edge="1" parent="1" source="lYN4OYt0fOrp-CvqFd3v-5" target="lYN4OYt0fOrp-CvqFd3v-2">
          <mxGeometry width="50" height="50" relative="1" as="geometry">
            <mxPoint x="20" y="300" as="sourcePoint" />
            <mxPoint x="220" y="250" as="targetPoint" />
          </mxGeometry>
        </mxCell>
        <mxCell id="lYN4OYt0fOrp-CvqFd3v-10" value="session layer&lt;div&gt;(State Pattern)&lt;/div&gt;" style="rounded=1;whiteSpace=wrap;html=1;" vertex="1" parent="1">
          <mxGeometry x="420" y="180" width="120" height="60" as="geometry" />
        </mxCell>
        <mxCell id="lYN4OYt0fOrp-CvqFd3v-11" value="" style="shape=flexArrow;endArrow=classic;html=1;rounded=0;entryX=0;entryY=0.5;entryDx=0;entryDy=0;exitX=0.986;exitY=0.611;exitDx=0;exitDy=0;exitPerimeter=0;" edge="1" parent="1" source="lYN4OYt0fOrp-CvqFd3v-1" target="lYN4OYt0fOrp-CvqFd3v-10">
          <mxGeometry width="50" height="50" relative="1" as="geometry">
            <mxPoint x="250" y="210" as="sourcePoint" />
            <mxPoint x="300" y="160" as="targetPoint" />
          </mxGeometry>
        </mxCell>
        <mxCell id="lYN4OYt0fOrp-CvqFd3v-12" value="" style="rounded=0;whiteSpace=wrap;html=1;" vertex="1" parent="1">
          <mxGeometry x="360" y="320" width="230" height="60" as="geometry" />
        </mxCell>
        <mxCell id="lYN4OYt0fOrp-CvqFd3v-14" value="INIT -&amp;gt; RINGING -&amp;gt;ACTIVE -&amp;gt;FASLE" style="text;html=1;align=center;verticalAlign=middle;whiteSpace=wrap;rounded=0;" vertex="1" parent="1">
          <mxGeometry x="375" y="335" width="210" height="30" as="geometry" />
        </mxCell>
        <mxCell id="lYN4OYt0fOrp-CvqFd3v-16" value="" style="shape=flexArrow;endArrow=classic;html=1;rounded=0;" edge="1" parent="1">
          <mxGeometry width="50" height="50" relative="1" as="geometry">
            <mxPoint x="540" y="210" as="sourcePoint" />
            <mxPoint x="640" y="210" as="targetPoint" />
          </mxGeometry>
        </mxCell>
        <mxCell id="lYN4OYt0fOrp-CvqFd3v-17" value="Audio Prosseing" style="rounded=1;whiteSpace=wrap;html=1;" vertex="1" parent="1">
          <mxGeometry x="650" y="180" width="120" height="60" as="geometry" />
        </mxCell>
        <mxCell id="lYN4OYt0fOrp-CvqFd3v-18" value="" style="endArrow=classic;html=1;rounded=0;entryX=-0.008;entryY=0.307;entryDx=0;entryDy=0;entryPerimeter=0;" edge="1" parent="1" target="lYN4OYt0fOrp-CvqFd3v-19">
          <mxGeometry width="50" height="50" relative="1" as="geometry">
            <mxPoint x="770" y="210" as="sourcePoint" />
            <mxPoint x="830" y="210" as="targetPoint" />
          </mxGeometry>
        </mxCell>
        <mxCell id="lYN4OYt0fOrp-CvqFd3v-19" value="" style="whiteSpace=wrap;html=1;aspect=fixed;" vertex="1" parent="1">
          <mxGeometry x="850" y="150" width="200" height="200" as="geometry" />
        </mxCell>
        <mxCell id="lYN4OYt0fOrp-CvqFd3v-20" value="Validate &amp;amp; Channel Handling" style="text;html=1;align=center;verticalAlign=middle;whiteSpace=wrap;rounded=0;" vertex="1" parent="1">
          <mxGeometry x="875" y="180" width="150" height="30" as="geometry" />
        </mxCell>
        <mxCell id="lYN4OYt0fOrp-CvqFd3v-21" value="DecodeStage" style="text;html=1;align=center;verticalAlign=middle;whiteSpace=wrap;rounded=0;" vertex="1" parent="1">
          <mxGeometry x="920" y="250" width="60" height="30" as="geometry" />
        </mxCell>
        <mxCell id="lYN4OYt0fOrp-CvqFd3v-22" value="Filter" style="text;html=1;align=center;verticalAlign=middle;whiteSpace=wrap;rounded=0;" vertex="1" parent="1">
          <mxGeometry x="920" y="300" width="60" height="30" as="geometry" />
        </mxCell>
        <mxCell id="lYN4OYt0fOrp-CvqFd3v-25" value="" style="shape=flexArrow;endArrow=classic;html=1;rounded=0;exitX=0.987;exitY=0.301;exitDx=0;exitDy=0;exitPerimeter=0;" edge="1" parent="1" source="lYN4OYt0fOrp-CvqFd3v-19">
          <mxGeometry width="50" height="50" relative="1" as="geometry">
            <mxPoint x="1070" y="210" as="sourcePoint" />
            <mxPoint x="1200" y="210" as="targetPoint" />
          </mxGeometry>
        </mxCell>
        <mxCell id="lYN4OYt0fOrp-CvqFd3v-26" value="đóng gói" style="text;html=1;align=center;verticalAlign=middle;whiteSpace=wrap;rounded=0;" vertex="1" parent="1">
          <mxGeometry x="1090" y="180" width="60" height="30" as="geometry" />
        </mxCell>
        <mxCell id="lYN4OYt0fOrp-CvqFd3v-27" value="PIPELINE phân tích" style="rounded=1;whiteSpace=wrap;html=1;" vertex="1" parent="1">
          <mxGeometry x="1200" y="180" width="120" height="60" as="geometry" />
        </mxCell>
        <mxCell id="lYN4OYt0fOrp-CvqFd3v-28" value="" style="endArrow=classic;html=1;rounded=0;entryX=0;entryY=0.4;entryDx=0;entryDy=0;entryPerimeter=0;" edge="1" parent="1" target="lYN4OYt0fOrp-CvqFd3v-29">
          <mxGeometry width="50" height="50" relative="1" as="geometry">
            <mxPoint x="1310" y="210" as="sourcePoint" />
            <mxPoint x="1380" y="210" as="targetPoint" />
          </mxGeometry>
        </mxCell>
        <mxCell id="lYN4OYt0fOrp-CvqFd3v-29" value="" style="whiteSpace=wrap;html=1;aspect=fixed;" vertex="1" parent="1">
          <mxGeometry x="1420" y="110" width="250" height="250" as="geometry" />
        </mxCell>
        <mxCell id="lYN4OYt0fOrp-CvqFd3v-30" value="STT" style="text;html=1;align=center;verticalAlign=middle;whiteSpace=wrap;rounded=0;" vertex="1" parent="1">
          <mxGeometry x="1485" y="130" width="60" height="30" as="geometry" />
        </mxCell>
        <mxCell id="lYN4OYt0fOrp-CvqFd3v-31" value="NPL" style="text;html=1;align=center;verticalAlign=middle;whiteSpace=wrap;rounded=0;" vertex="1" parent="1">
          <mxGeometry x="1485" y="180" width="60" height="30" as="geometry" />
        </mxCell>
        <mxCell id="lYN4OYt0fOrp-CvqFd3v-32" value="Keyword" style="text;html=1;align=center;verticalAlign=middle;whiteSpace=wrap;rounded=0;" vertex="1" parent="1">
          <mxGeometry x="1490" y="220" width="60" height="30" as="geometry" />
        </mxCell>
        <mxCell id="lYN4OYt0fOrp-CvqFd3v-33" value="Scoring" style="text;html=1;align=center;verticalAlign=middle;whiteSpace=wrap;rounded=0;" vertex="1" parent="1">
          <mxGeometry x="1490" y="280" width="60" height="30" as="geometry" />
        </mxCell>
        <mxCell id="lYN4OYt0fOrp-CvqFd3v-34" value="persist" style="text;html=1;align=center;verticalAlign=middle;whiteSpace=wrap;rounded=0;" vertex="1" parent="1">
          <mxGeometry x="1490" y="330" width="60" height="30" as="geometry" />
        </mxCell>
        <mxCell id="lYN4OYt0fOrp-CvqFd3v-35" value="kafka/queue internal" style="text;html=1;align=center;verticalAlign=middle;whiteSpace=wrap;rounded=0;" vertex="1" parent="1">
          <mxGeometry x="1330" y="170" width="60" height="30" as="geometry" />
        </mxCell>
        <mxCell id="lYN4OYt0fOrp-CvqFd3v-36" value="" style="endArrow=classic;html=1;rounded=0;" edge="1" parent="1">
          <mxGeometry width="50" height="50" relative="1" as="geometry">
            <mxPoint x="949.83" y="225" as="sourcePoint" />
            <mxPoint x="949.83" y="245" as="targetPoint" />
          </mxGeometry>
        </mxCell>
        <mxCell id="lYN4OYt0fOrp-CvqFd3v-37" value="" style="endArrow=classic;html=1;rounded=0;" edge="1" parent="1">
          <mxGeometry width="50" height="50" relative="1" as="geometry">
            <mxPoint x="950" y="285" as="sourcePoint" />
            <mxPoint x="950" y="305" as="targetPoint" />
          </mxGeometry>
        </mxCell>
        <mxCell id="lYN4OYt0fOrp-CvqFd3v-40" value="streaming" style="text;html=1;align=center;verticalAlign=middle;whiteSpace=wrap;rounded=0;" vertex="1" parent="1">
          <mxGeometry x="550" y="170" width="60" height="30" as="geometry" />
        </mxCell>
        <mxCell id="lYN4OYt0fOrp-CvqFd3v-41" value="kafka/queue" style="text;html=1;align=center;verticalAlign=middle;whiteSpace=wrap;rounded=0;" vertex="1" parent="1">
          <mxGeometry x="780" y="180" width="60" height="30" as="geometry" />
        </mxCell>
        <mxCell id="lYN4OYt0fOrp-CvqFd3v-42" value="" style="endArrow=classic;html=1;rounded=0;" edge="1" parent="1">
          <mxGeometry width="50" height="50" relative="1" as="geometry">
            <mxPoint x="1514.86" y="150" as="sourcePoint" />
            <mxPoint x="1514.86" y="180" as="targetPoint" />
          </mxGeometry>
        </mxCell>
        <mxCell id="lYN4OYt0fOrp-CvqFd3v-43" value="" style="endArrow=classic;html=1;rounded=0;" edge="1" parent="1">
          <mxGeometry width="50" height="50" relative="1" as="geometry">
            <mxPoint x="1519.86" y="200" as="sourcePoint" />
            <mxPoint x="1519.86" y="230" as="targetPoint" />
          </mxGeometry>
        </mxCell>
        <mxCell id="lYN4OYt0fOrp-CvqFd3v-44" value="" style="endArrow=classic;html=1;rounded=0;" edge="1" parent="1">
          <mxGeometry width="50" height="50" relative="1" as="geometry">
            <mxPoint x="1519.86" y="250" as="sourcePoint" />
            <mxPoint x="1519.86" y="280" as="targetPoint" />
          </mxGeometry>
        </mxCell>
        <mxCell id="lYN4OYt0fOrp-CvqFd3v-45" value="" style="endArrow=classic;html=1;rounded=0;" edge="1" parent="1">
          <mxGeometry width="50" height="50" relative="1" as="geometry">
            <mxPoint x="1519.86" y="300" as="sourcePoint" />
            <mxPoint x="1519.86" y="330" as="targetPoint" />
          </mxGeometry>
        </mxCell>
        <mxCell id="lYN4OYt0fOrp-CvqFd3v-47" value="&lt;span style=&quot;font-size:12.0pt;line-height:107%;&lt;br/&gt;font-family:&amp;quot;Times New Roman&amp;quot;,serif;mso-fareast-font-family:&amp;quot;Times New Roman&amp;quot;;&lt;br/&gt;mso-ansi-language:EN-US;mso-fareast-language:EN-US;mso-bidi-language:AR-SA&quot;&gt;normalize&lt;br/&gt;volume&lt;/span&gt;" style="rounded=1;whiteSpace=wrap;html=1;" vertex="1" parent="1">
          <mxGeometry x="890" y="400" width="120" height="60" as="geometry" />
        </mxCell>
        <mxCell id="lYN4OYt0fOrp-CvqFd3v-48" value="" style="endArrow=classic;html=1;rounded=0;" edge="1" parent="1">
          <mxGeometry width="50" height="50" relative="1" as="geometry">
            <mxPoint x="960" y="350" as="sourcePoint" />
            <mxPoint x="960" y="390" as="targetPoint" />
          </mxGeometry>
        </mxCell>
        <mxCell id="lYN4OYt0fOrp-CvqFd3v-49" value="&lt;span style=&quot;font-size:12.0pt;line-height:107%;&lt;br/&gt;font-family:&amp;quot;Times New Roman&amp;quot;,serif;mso-fareast-font-family:&amp;quot;Times New Roman&amp;quot;;&lt;br/&gt;mso-ansi-language:EN-US;mso-fareast-language:EN-US;mso-bidi-language:AR-SA&quot;&gt;noise&lt;br/&gt;reduction&lt;/span&gt;" style="rounded=1;whiteSpace=wrap;html=1;" vertex="1" parent="1">
          <mxGeometry x="890" y="500" width="120" height="60" as="geometry" />
        </mxCell>
        <mxCell id="lYN4OYt0fOrp-CvqFd3v-50" value="" style="endArrow=classic;html=1;rounded=0;entryX=0.646;entryY=-0.025;entryDx=0;entryDy=0;entryPerimeter=0;exitX=0.523;exitY=1;exitDx=0;exitDy=0;exitPerimeter=0;" edge="1" parent="1" source="lYN4OYt0fOrp-CvqFd3v-47">
          <mxGeometry width="50" height="50" relative="1" as="geometry">
            <mxPoint x="944.96" y="462.5200000000001" as="sourcePoint" />
            <mxPoint x="955.04" y="500" as="targetPoint" />
          </mxGeometry>
        </mxCell>
        <mxCell id="lYN4OYt0fOrp-CvqFd3v-51" value="&lt;span style=&quot;font-size:12.0pt;line-height:107%;&lt;br/&gt;font-family:&amp;quot;Times New Roman&amp;quot;,serif;mso-fareast-font-family:&amp;quot;Times New Roman&amp;quot;;&lt;br/&gt;mso-ansi-language:EN-US;mso-fareast-language:EN-US;mso-bidi-language:AR-SA&quot;&gt;mute&lt;br/&gt;segment&amp;nbsp;&lt;/span&gt;" style="rounded=1;whiteSpace=wrap;html=1;" vertex="1" parent="1">
          <mxGeometry x="890" y="600" width="120" height="60" as="geometry" />
        </mxCell>
        <mxCell id="lYN4OYt0fOrp-CvqFd3v-52" value="" style="endArrow=classic;html=1;rounded=0;entryX=0.5;entryY=0;entryDx=0;entryDy=0;" edge="1" parent="1" target="lYN4OYt0fOrp-CvqFd3v-51">
          <mxGeometry width="50" height="50" relative="1" as="geometry">
            <mxPoint x="950" y="560" as="sourcePoint" />
            <mxPoint x="1000" y="510" as="targetPoint" />
          </mxGeometry>
        </mxCell>
        <mxCell id="lYN4OYt0fOrp-CvqFd3v-53" value="" style="shape=flexArrow;endArrow=classic;html=1;rounded=0;exitX=1;exitY=1;exitDx=0;exitDy=0;" edge="1" parent="1" source="lYN4OYt0fOrp-CvqFd3v-34">
          <mxGeometry width="50" height="50" relative="1" as="geometry">
            <mxPoint x="1500" y="480" as="sourcePoint" />
            <mxPoint x="1550" y="430" as="targetPoint" />
          </mxGeometry>
        </mxCell>
        <mxCell id="lYN4OYt0fOrp-CvqFd3v-56" value="EVENT" style="rounded=1;whiteSpace=wrap;html=1;" vertex="1" parent="1">
          <mxGeometry x="1490" y="430" width="120" height="60" as="geometry" />
        </mxCell>
        <mxCell id="lYN4OYt0fOrp-CvqFd3v-57" value="" style="shape=flexArrow;endArrow=classic;html=1;rounded=0;" edge="1" parent="1">
          <mxGeometry width="50" height="50" relative="1" as="geometry">
            <mxPoint x="1620" y="460" as="sourcePoint" />
            <mxPoint x="1710" y="460" as="targetPoint" />
          </mxGeometry>
        </mxCell>
        <mxCell id="lYN4OYt0fOrp-CvqFd3v-58" value="&lt;span style=&quot;line-height: 107%; font-family: &amp;quot;Courier New&amp;quot;;&quot;&gt;&lt;font style=&quot;font-size: 18px;&quot;&gt;EventBus&lt;/font&gt;&lt;/span&gt;" style="rounded=1;whiteSpace=wrap;html=1;" vertex="1" parent="1">
          <mxGeometry x="1720" y="430" width="120" height="60" as="geometry" />
        </mxCell>
        <mxCell id="lYN4OYt0fOrp-CvqFd3v-60" value="" style="shape=flexArrow;endArrow=classic;html=1;rounded=0;" edge="1" parent="1">
          <mxGeometry width="50" height="50" relative="1" as="geometry">
            <mxPoint x="1840" y="460" as="sourcePoint" />
            <mxPoint x="1940" y="460" as="targetPoint" />
          </mxGeometry>
        </mxCell>
        <mxCell id="lYN4OYt0fOrp-CvqFd3v-61" value="" style="rounded=1;whiteSpace=wrap;html=1;" vertex="1" parent="1">
          <mxGeometry x="1940" y="380" width="220" height="220" as="geometry" />
        </mxCell>
        <mxCell id="lYN4OYt0fOrp-CvqFd3v-62" value="&lt;span style=&quot;line-height: 107%;&quot;&gt;&lt;font style=&quot;font-size: 18px;&quot;&gt;CallEndedEvent&lt;/font&gt;&lt;/span&gt;" style="text;html=1;align=center;verticalAlign=middle;whiteSpace=wrap;rounded=0;" vertex="1" parent="1">
          <mxGeometry x="2020" y="415" width="60" height="30" as="geometry" />
        </mxCell>
        <mxCell id="lYN4OYt0fOrp-CvqFd3v-63" value="&lt;font style=&quot;font-size: 18px;&quot;&gt;&lt;span style=&quot;line-height: 107%;&quot;&gt;, &lt;/span&gt;&lt;span style=&quot;line-height: 107%; font-family: &amp;quot;Courier New&amp;quot;;&quot;&gt;LowScoreEvent&lt;/span&gt;&lt;/font&gt;" style="text;html=1;align=center;verticalAlign=middle;whiteSpace=wrap;rounded=0;" vertex="1" parent="1">
          <mxGeometry x="2020" y="470" width="60" height="30" as="geometry" />
        </mxCell>
        <mxCell id="lYN4OYt0fOrp-CvqFd3v-64" value="&lt;span style=&quot;line-height: 107%;&quot;&gt;&lt;font style=&quot;font-size: 18px;&quot;&gt;ForbiddenKeywordEvent&lt;/font&gt;&lt;/span&gt;" style="text;html=1;align=center;verticalAlign=middle;whiteSpace=wrap;rounded=0;" vertex="1" parent="1">
          <mxGeometry x="2020" y="535" width="60" height="30" as="geometry" />
        </mxCell>
        <mxCell id="lYN4OYt0fOrp-CvqFd3v-65" value="" style="endArrow=classic;html=1;rounded=0;" edge="1" parent="1">
          <mxGeometry width="50" height="50" relative="1" as="geometry">
            <mxPoint x="2049.66" y="440" as="sourcePoint" />
            <mxPoint x="2049.66" y="490" as="targetPoint" />
          </mxGeometry>
        </mxCell>
        <mxCell id="lYN4OYt0fOrp-CvqFd3v-66" value="" style="endArrow=classic;html=1;rounded=0;" edge="1" parent="1">
          <mxGeometry width="50" height="50" relative="1" as="geometry">
            <mxPoint x="2049.66" y="490" as="sourcePoint" />
            <mxPoint x="2049.66" y="540" as="targetPoint" />
          </mxGeometry>
        </mxCell>
        <mxCell id="lYN4OYt0fOrp-CvqFd3v-67" value="" style="endArrow=classic;html=1;rounded=0;" edge="1" parent="1">
          <mxGeometry width="50" height="50" relative="1" as="geometry">
            <mxPoint x="2160" y="470" as="sourcePoint" />
            <mxPoint x="2260" y="470" as="targetPoint" />
          </mxGeometry>
        </mxCell>
        <mxCell id="lYN4OYt0fOrp-CvqFd3v-68" value="&lt;span style=&quot;font-size:10.0pt;line-height:107%;&lt;br/&gt;font-family:&amp;quot;Courier New&amp;quot;;mso-fareast-font-family:&amp;quot;Times New Roman&amp;quot;;mso-ansi-language:&lt;br/&gt;EN-US;mso-fareast-language:EN-US;mso-bidi-language:AR-SA&quot;&gt;EmailNotifier&lt;/span&gt;" style="rounded=1;whiteSpace=wrap;html=1;" vertex="1" parent="1">
          <mxGeometry x="2270" y="440" width="120" height="60" as="geometry" />
        </mxCell>
        <mxCell id="lYN4OYt0fOrp-CvqFd3v-70" value="" style="shape=flexArrow;endArrow=classic;startArrow=classic;html=1;rounded=0;exitX=0.457;exitY=-0.012;exitDx=0;exitDy=0;entryX=0.389;entryY=0.986;entryDx=0;entryDy=0;entryPerimeter=0;exitPerimeter=0;" edge="1" parent="1" source="lYN4OYt0fOrp-CvqFd3v-12" target="lYN4OYt0fOrp-CvqFd3v-10">
          <mxGeometry width="100" height="100" relative="1" as="geometry">
            <mxPoint x="290" y="350" as="sourcePoint" />
            <mxPoint x="140" y="220" as="targetPoint" />
          </mxGeometry>
        </mxCell>
        <mxCell id="lYN4OYt0fOrp-CvqFd3v-71" value="QUEUE" style="text;html=1;align=center;verticalAlign=middle;whiteSpace=wrap;rounded=0;" vertex="1" parent="1">
          <mxGeometry x="480" y="260" width="60" height="30" as="geometry" />
        </mxCell>
        <mxCell id="lYN4OYt0fOrp-CvqFd3v-72" value="Streaming" style="text;html=1;align=center;verticalAlign=middle;whiteSpace=wrap;rounded=0;" vertex="1" parent="1">
          <mxGeometry x="1330" y="220" width="60" height="30" as="geometry" />
        </mxCell>
      </root>
    </mxGraphModel>
  </diagram>
</mxfile>
